<svg width="600" height="400" viewBox="0 0 600 400" fill="none" xmlns="http://www.w3.org/2000/svg"> <g clip-path="url(#clip0_53_274)"> <rect width="600" height="400" rx="16" fill="#313131"/> <rect x="30" y="30" width="41" height="40" rx="16" fill="#252525"/> <rect x="101" y="30" width="41" height="40" rx="16" fill="#252525"/> <rect x="172" y="30" width="41" height="40" rx="16" fill="#252525"/> <rect x="243" y="30" width="41" height="40" rx="16" fill="#252525"/> <rect x="314" y="30" width="41" height="40" rx="16" fill="#252525"/> <rect x="385" y="30" width="41" height="40" rx="16" fill="#252525"/> <rect x="456" y="30" width="41" height="40" rx="16" fill="#252525"/> <rect x="527" y="30" width="41" height="40" rx="16" fill="#252525"/> <rect y="349" width="600" height="20" fill="#252525"/> <path d="M186.336 142.037C178.081 153.318 162.533 155.552 151.609 147.029C140.684 138.504 138.52 122.449 146.776 111.168C155.031 99.8874 170.579 97.6532 181.503 106.177C192.428 114.7 194.591 130.756 186.336 142.037Z" fill="#252525"/> <path d="M59.0702 227.282L37.0411 257.384L-7.4491 244.119C-14.1064 242.134 -21.0605 246.099 -22.9828 252.972L-23.5043 254.838C-25.4266 261.711 -21.588 268.894 -14.9307 270.878L47.3437 289.504L72.4686 255.172L59.0702 227.282Z" fill="#252525"/> <path d="M216.619 225.7L185.338 217.27L170.183 185.721L152.006 210.559L164.208 235.959L164.218 235.953C165.8 239.086 168.607 241.545 172.179 242.507L209.808 252.649C216.512 254.455 223.366 250.308 225.116 243.386L225.591 241.506C227.339 234.585 223.323 227.508 216.619 225.7Z" fill="#252525"/> <path d="M122.512 140.588L74.1727 131.104C74.1727 131.104 62.8805 146.535 60.0863 150.353L36.6402 182.391C32.4629 188.099 33.5584 196.224 39.0864 200.537L40.5871 201.708C42.8505 203.475 45.5073 204.328 48.1409 204.328C51.9399 204.328 55.6935 202.554 58.1594 199.183L85.5931 161.695L104.369 165.379L67.6435 215.563L101.778 286.62L72.041 327.254C67.8636 332.962 68.9592 341.086 74.4871 345.4L75.9878 346.571C78.2512 348.337 80.908 349.191 83.5416 349.191C87.3406 349.191 91.0942 347.417 93.5601 344.046L126.84 298.571C128.35 296.508 133.352 289.671 133.352 289.671L111.666 244.524L164.065 172.923L122.553 140.531L122.512 140.588Z" fill="#252525"/> <path d="M438 171.636C437.879 170.03 437.545 168.621 437 167.409C436.455 166.167 435.682 165.121 434.682 164.273C433.682 163.394 432.439 162.742 430.955 162.318C429.5 161.864 427.788 161.636 425.818 161.636C421.576 161.636 417.712 162.652 414.227 164.682C410.742 166.712 407.818 169.636 405.455 173.455C403.121 177.273 401.515 181.879 400.636 187.273C399.727 192.727 399.652 197.394 400.409 201.273C401.167 205.152 402.803 208.121 405.318 210.182C407.864 212.242 411.303 213.273 415.636 213.273C419.515 213.273 422.864 212.712 425.682 211.591C428.5 210.47 430.758 208.879 432.455 206.818C434.152 204.758 435.212 202.333 435.636 199.545L440 200H418.727L421.636 182H462.909L460.818 194.909C459.424 203.394 456.424 210.652 451.818 216.682C447.242 222.682 441.545 227.288 434.727 230.5C427.909 233.682 420.424 235.273 412.273 235.273C403.242 235.273 395.621 233.348 389.409 229.5C383.197 225.652 378.758 220.167 376.091 213.045C373.455 205.924 372.939 197.455 374.545 187.636C375.818 179.939 378.121 173.121 381.455 167.182C384.818 161.242 388.924 156.227 393.773 152.136C398.621 148.015 403.97 144.909 409.818 142.818C415.667 140.697 421.727 139.636 428 139.636C433.485 139.636 438.47 140.424 442.955 142C447.439 143.545 451.273 145.758 454.455 148.636C457.636 151.485 460.015 154.864 461.591 158.773C463.197 162.682 463.848 166.97 463.545 171.636H438ZM563.693 189.091C561.996 199.212 558.633 207.697 553.602 214.545C548.572 221.394 542.466 226.561 535.284 230.045C528.102 233.53 520.42 235.273 512.239 235.273C503.511 235.273 495.936 233.379 489.511 229.591C483.087 225.803 478.405 220.258 475.466 212.955C472.527 205.652 471.936 196.727 473.693 186.182C475.33 176.061 478.663 167.545 483.693 160.636C488.723 153.727 494.86 148.5 502.102 144.955C509.345 141.409 517.087 139.636 525.33 139.636C533.996 139.636 541.527 141.545 547.92 145.364C554.345 149.182 559.011 154.773 561.92 162.136C564.86 169.5 565.451 178.485 563.693 189.091ZM538.239 186.182C539.087 180.848 539.148 176.364 538.42 172.727C537.693 169.061 536.163 166.303 533.83 164.455C531.496 162.576 528.36 161.636 524.42 161.636C519.936 161.636 515.966 162.727 512.511 164.909C509.057 167.091 506.193 170.227 503.92 174.318C501.648 178.409 500.057 183.333 499.148 189.091C498.178 194.485 498.087 198.97 498.875 202.545C499.693 206.121 501.299 208.803 503.693 210.591C506.117 212.379 509.269 213.273 513.148 213.273C517.572 213.273 521.481 212.212 524.875 210.091C528.299 207.97 531.133 204.894 533.375 200.864C535.648 196.833 537.269 191.939 538.239 186.182Z" fill="white"/> <path d="M297.398 273.636H281.602C281.716 272.292 281.64 271.08 281.375 270C281.11 268.92 280.655 267.992 280.011 267.216C279.367 266.42 278.525 265.814 277.483 265.398C276.441 264.981 275.201 264.773 273.761 264.773C270.996 264.773 268.525 265.464 266.347 266.847C264.169 268.21 262.36 270.17 260.92 272.727C259.481 275.265 258.458 278.295 257.852 281.818C257.322 285.227 257.303 288.059 257.795 290.312C258.307 292.566 259.301 294.252 260.778 295.369C262.275 296.487 264.216 297.045 266.602 297.045C268.193 297.045 269.652 296.856 270.977 296.477C272.322 296.098 273.515 295.559 274.557 294.858C275.617 294.138 276.517 293.286 277.256 292.301C278.013 291.297 278.591 290.189 278.989 288.977H294.898C294.292 291.439 293.212 293.958 291.659 296.534C290.106 299.091 288.098 301.449 285.636 303.608C283.174 305.748 280.277 307.481 276.943 308.807C273.61 310.133 269.86 310.795 265.693 310.795C260.239 310.795 255.532 309.602 251.574 307.216C247.634 304.83 244.775 301.345 242.994 296.761C241.233 292.178 240.883 286.591 241.943 280C243.004 273.636 245.097 268.305 248.222 264.006C251.347 259.706 255.144 256.468 259.614 254.29C264.083 252.112 268.837 251.023 273.875 251.023C277.682 251.023 281.091 251.525 284.102 252.528C287.133 253.532 289.68 255 291.744 256.932C293.828 258.845 295.362 261.203 296.347 264.006C297.331 266.809 297.682 270.019 297.398 273.636ZM324.053 251.818L314.393 310H298.598L308.257 251.818H324.053ZM381.879 251.818L372.22 310H359.038L343.129 279.432H342.788L337.675 310H321.879L331.538 251.818H344.947L360.629 282.273H361.084L366.084 251.818H381.879ZM379.692 310L389.351 251.818H431.283L429.124 264.545H402.987L401.396 274.545H425.374L423.214 287.273H399.237L397.646 297.273H423.669L421.51 310H379.692ZM439.116 251.818H458.776L466.844 284.773H467.526L486.503 251.818H506.162L496.503 310H481.048L486.616 276.364H486.162L467.753 309.545H458.435L451.048 276.136H450.594L444.912 310H429.457L439.116 251.818ZM519.102 310H502.057L530.92 251.818H552.511L562.057 310H545.011L539.33 267.841H538.875L519.102 310ZM519.784 287.045H551.83L549.784 298.864H517.739L519.784 287.045Z" fill="white"/> </g> <defs> <clipPath id="clip0_53_274"> <rect width="600" height="400" rx="16" fill="white"/> </clipPath> </defs> </svg>
